{
  "source": "C:\\Users\\Peter\\Desktop\\stuff\\MIUN\\quantitative_research\\video_compression\\videos\\BVI-HD\\BVI-HD_CDVL_videos\\ORIG\\Hamster_1920x1080_60fps.mp4",
  "output": "C:\\Users\\Peter\\Desktop\\stuff\\MIUN\\quantitative_research\\video_compression\\compressed_videos\\BVI-HD\\h264\\8\\Hamster_1920x1080_60fps_h264.mp4",
  "codec": "h264",
  "ok": "Input #0, mov,mp4,m4a,3gp,3g2,mj2, from 'C:\\Users\\Peter\\Desktop\\stuff\\MIUN\\quantitative_research\\video_compression\\videos\\BVI-HD\\BVI-HD_CDVL_videos\\ORIG\\Hamster_1920x1080_60fps.mp4':\n  Metadata:\n    major_brand     : isom\n    minor_version   : 512\n    compatible_brands: isomiso2avc1mp41\n    encoder         : Lavf54.28.101\n  Duration: 00:00:05.00, start: 0.000000, bitrate: 208485 kb/s\n  Stream #0:0[0x1](und): Video: h264 (High 4:4:4 Predictive) (avc1 / 0x31637661), yuv420p(progressive), 1920x1080, 208481 kb/s, 60 fps, 60 tbr, 60 tbn (default)\n    Metadata:\n      handler_name    : VideoHandler\n      vendor_id       : [0][0][0][0]\n[out#0/mp4 @ 000002972ed29bc0] Codec AVOption b:a (set bitrate (in bits/s)) has not been used for any stream. The most likely reason is either wrong type (e.g. a video option with no video streams) or that it is a private option of some decoder which was not actually used for any stream.\nStream mapping:\n  Stream #0:0 -> #0:0 (h264 (native) -> h264 (libx264))\nPress [q] to stop, [?] for help\n[libx264 @ 000002972f4aac40] using cpu capabilities: MMX2 SSE2Fast SSSE3 SSE4.2 AVX FMA3 BMI2 AVX2\n[libx264 @ 000002972f4aac40] profile High, level 5.0, 4:2:0, 8-bit\n[libx264 @ 000002972f4aac40] 264 - core 165 r3222 b35605a - H.264/MPEG-4 AVC codec - Copyleft 2003-2025 - http://www.videolan.org/x264.html - options: cabac=1 ref=5 deblock=1:0:0 analyse=0x3:0x113 me=hex subme=8 psy=1 psy_rd=1.00:0.00 mixed_ref=1 me_range=16 chroma_me=1 trellis=2 8x8dct=1 cqm=0 deadzone=21,11 fast_pskip=1 chroma_qp_offset=-2 threads=18 lookahead_threads=3 sliced_threads=0 nr=0 decimate=1 interlaced=0 bluray_compat=0 constrained_intra=0 bframes=3 b_pyramid=2 b_adapt=1 b_bias=0 direct=3 weightb=1 open_gop=0 weightp=2 keyint=250 keyint_min=25 scenecut=40 intra_refresh=0 rc_lookahead=50 rc=cbr mbtree=1 bitrate=8000 ratetol=1.0 qcomp=0.60 qpmin=0 qpmax=69 qpstep=4 vbv_maxrate=8000 vbv_bufsize=8000 nal_hrd=none filler=0 ip_ratio=1.40 aq=1:1.00\nOutput #0, mp4, to 'C:\\Users\\Peter\\Desktop\\stuff\\MIUN\\quantitative_research\\video_compression\\compressed_videos\\BVI-HD\\h264\\8\\Hamster_1920x1080_60fps_h264.mp4':\n  Metadata:\n    major_brand     : isom\n    minor_version   : 512\n    compatible_brands: isomiso2avc1mp41\n    encoder         : Lavf62.3.100\n  Stream #0:0(und): Video: h264 (avc1 / 0x31637661), yuv420p(tv, progressive), 1920x1080, q=2-31, 8000 kb/s, 60 fps, 15360 tbn (default)\n    Metadata:\n      encoder         : Lavc62.11.100 libx264\n      handler_name    : VideoHandler\n      vendor_id       : [0][0][0][0]\n    Side data:\n      cpb: bitrate max/min/avg: 8000000/0/8000000 buffer size: 8000000 vbv_delay: N/A\nframe=    0 fps=0.0 q=0.0 size=       0KiB time=N/A bitrate=N/A speed=N/A elapsed=0:00:00.53    \nframe=    0 fps=0.0 q=0.0 size=       0KiB time=N/A bitrate=N/A speed=N/A elapsed=0:00:01.15    \nframe=    5 fps=2.9 q=28.0 size=       0KiB time=00:00:00.03 bitrate=  11.5kbits/s speed=0.0195x elapsed=0:00:01.70    \nframe=   25 fps= 11 q=27.0 size=     256KiB time=00:00:00.31 bitrate=6623.8kbits/s speed=0.134x elapsed=0:00:02.35    \nframe=   41 fps= 14 q=28.0 size=     512KiB time=00:00:00.60 bitrate=6991.1kbits/s speed=0.201x elapsed=0:00:02.98    \nframe=   66 fps= 18 q=28.0 size=     768KiB time=00:00:01.00 bitrate=6291.8kbits/s speed=0.273x elapsed=0:00:03.66    \nframe=   85 fps= 20 q=28.0 size=    1280KiB time=00:00:01.31 bitrate=7964.2kbits/s speed=0.305x elapsed=0:00:04.31    \nframe=  101 fps= 21 q=29.0 size=    1536KiB time=00:00:01.65 bitrate=7626.2kbits/s speed=0.335x elapsed=0:00:04.91    \nframe=  117 fps= 21 q=29.0 size=    1792KiB time=00:00:01.91 bitrate=7659.4kbits/s speed=0.348x elapsed=0:00:05.50    \nframe=  138 fps= 23 q=29.0 size=    2304KiB time=00:00:02.25 bitrate=8388.8kbits/s speed=0.369x elapsed=0:00:06.10    \nframe=  158 fps= 24 q=29.0 size=    2560KiB time=00:00:02.56 bitrate=8170.9kbits/s speed=0.382x elapsed=0:00:06.72    \nframe=  181 fps= 25 q=29.0 size=    2816KiB time=00:00:02.91 bitrate=7909.4kbits/s speed=0.399x elapsed=0:00:07.31    \nframe=  201 fps= 25 q=30.0 size=    3328KiB time=00:00:03.31 bitrate=8220.1kbits/s speed=0.42x elapsed=0:00:07.89    \nframe=  215 fps= 25 q=31.0 size=    3584KiB time=00:00:03.48 bitrate=8428.9kbits/s speed=0.412x elapsed=0:00:08.45    \nframe=  226 fps= 25 q=31.0 size=    3840KiB time=00:00:03.71 bitrate=8463.9kbits/s speed=0.409x elapsed=0:00:09.08    \nframe=  243 fps= 25 q=30.0 size=    4096KiB time=00:00:03.95 bitrate=8494.9kbits/s speed=0.407x elapsed=0:00:09.69    \nframe=  263 fps= 26 q=30.0 size=    4352KiB time=00:00:04.35 bitrate=8195.9kbits/s speed=0.422x elapsed=0:00:10.31    \n[mp4 @ 000002972ed314c0] Starting second pass: moving the moov atom to the beginning of the file\n[out#0/mp4 @ 000002972ed29bc0] video:5003KiB audio:0KiB subtitle:0KiB other streams:0KiB global headers:0KiB muxing overhead: 0.087893%\nframe=  300 fps= 28 q=-1.0 Lsize=    5008KiB time=00:00:04.96 bitrate=8259.5kbits/s speed=0.455x elapsed=0:00:10.90    \n[libx264 @ 000002972f4aac40] frame I:2     Avg QP:22.64  size: 68209\n[libx264 @ 000002972f4aac40] frame P:76    Avg QP:26.04  size: 28822\n[libx264 @ 000002972f4aac40] frame B:222   Avg QP:27.97  size: 12593\n[libx264 @ 000002972f4aac40] consecutive B-frames:  1.0%  0.0%  3.0% 96.0%\n[libx264 @ 000002972f4aac40] mb I  I16..4: 14.8% 81.5%  3.7%\n[libx264 @ 000002972f4aac40] mb P  I16..4:  1.6% 17.8%  0.9%  P16..4: 25.4%  5.8%  2.3%  0.0%  0.0%    skip:46.2%\n[libx264 @ 000002972f4aac40] mb B  I16..4:  0.4%  2.8%  0.2%  B16..8: 25.9%  4.8%  0.6%  direct: 2.3%  skip:62.9%  L0:52.0% L1:41.2% BI: 6.7%\n[libx264 @ 000002972f4aac40] 8x8 transform intra:85.8% inter:89.4%\n[libx264 @ 000002972f4aac40] direct mvs  spatial:95.5% temporal:4.5%\n[libx264 @ 000002972f4aac40] coded y,uvDC,uvAC intra: 50.7% 67.2% 36.9% inter: 8.3% 14.0% 1.5%\n[libx264 @ 000002972f4aac40] i16 v,h,dc,p: 39% 27%  6% 28%\n[libx264 @ 000002972f4aac40] i8 v,h,dc,ddl,ddr,vr,hd,vl,hu: 18% 15% 28%  4%  7%  7%  8%  5%  8%\n[libx264 @ 000002972f4aac40] i4 v,h,dc,ddl,ddr,vr,hd,vl,hu: 15% 16% 17%  6% 13%  9% 14%  5%  6%\n[libx264 @ 000002972f4aac40] i8c dc,h,v,p: 55% 19% 16% 10%\n[libx264 @ 000002972f4aac40] Weighted P-Frames: Y:0.0% UV:0.0%\n[libx264 @ 000002972f4aac40] ref P L0: 40.9% 13.0% 21.7% 10.9% 13.5%\n[libx264 @ 000002972f4aac40] ref B L0: 69.0% 19.7%  8.5%  2.8%\n[libx264 @ 000002972f4aac40] ref B L1: 92.5%  7.5%\n[libx264 @ 000002972f4aac40] kb/s:8196.04\n",
  "seconds": 11.27618145942688,
  "probe_out": {}
}